<?xml version="1.0" encoding="utf-8"?>
<!-- Generator: Adobe Illustrator 18.0.0, SVG Export Plug-In . SVG Version: 6.00 Build 0)  -->
<!DOCTYPE svg PUBLIC "-//W3C//DTD SVG 1.1//EN" "http://www.w3.org/Graphics/SVG/1.1/DTD/svg11.dtd">
<svg version="1.1" id="Layer_1" xmlns="http://www.w3.org/2000/svg" xmlns:xlink="http://www.w3.org/1999/xlink" x="0px" y="0px"
	 viewBox="0 0 200 200" enable-background="new 0 0 200 200" xml:space="preserve">
<g id="Scala_Icon">
	<g>
		<defs>
			<path id="XMLID_1_" d="M151.3,168H48.7c-9.2,0-16.7-7.5-16.7-16.7V48.7C32,39.5,39.5,32,48.7,32h102.7c9.2,0,16.7,7.5,16.7,16.7
				v102.7C168,160.5,160.5,168,151.3,168z"/>
		</defs>
		<use xlink:href="#XMLID_1_"  overflow="visible" fill="#5873A9"/>
		<clipPath id="XMLID_3_">
			<use xlink:href="#XMLID_1_"  overflow="visible"/>
		</clipPath>
		<g clip-path="url(#XMLID_3_)">
			<polygon opacity="0.3" points="44,121.1 72.8,108.9 83.4,97.7 89.4,103.7 108.1,91.4 109.6,92.9 114.3,90.2 119.7,77.4 
				168,125.7 168,168 91,168 			"/>
		</g>
	</g>
</g>
<g id="Layer_2">
</g>
<g>
	<path fill="#FFFFFF" d="M119,77c0.6,0.1,0.9,0.5,1.2,1c1.8,2.8,3.7,5.7,5.6,8.5c3,4.5,6.1,8.9,9.4,13.2c2.2,2.9,4.5,5.7,6.9,8.5
		c1.7,1.9,3.5,3.8,5.4,5.6c1.9,1.8,4,3.5,6.3,4.7c0.5,0.3,1.1,0.5,1.7,0.7c0.5,0.2,0.9,0.6,0.9,1.1c0,0.5-0.3,0.9-0.8,1.1
		c-1.4,0.5-2.8,0.5-4.2,0.1c-1.6-0.4-3-1.1-4.4-2c-2.7-1.7-5-3.9-7.2-6.1c-2.7-2.7-5.2-5.6-7.5-8.6c-2.4-3.1-4.8-6.2-7.1-9.4
		c-1.9-2.6-3.7-5.3-5.5-7.9c-0.1-0.1-0.1-0.2-0.2-0.3c-0.1,0.2-0.2,0.4-0.3,0.6c-2.4,4.6-5.1,9-8,13.3c-2.4,3.5-4.9,6.9-7.6,10.1
		c-2.2,2.6-4.6,5.1-7.3,7.2c-1.7,1.4-3.5,2.7-5.6,3.5c-1.1,0.4-2.3,0.8-3.5,0.7c-0.8-0.1-1.6-0.2-2.3-0.7c-0.6-0.4-0.6-1.4,0-1.8
		c0.7-0.5,1.5-0.9,2.2-1.4c2-1.3,3.8-2.8,5.6-4.4c2.1-1.9,4.1-4,5.9-6.1c2.6-3,5.1-6.1,7.3-9.4c3.4-4.8,6.4-9.8,9.2-15
		c1-1.8,1.9-3.7,2.8-5.5c0.3-0.5,0.5-1,1.1-1.1C118.9,77,119,77,119,77z"/>
	<path fill="#FFFFFF" d="M43.7,120.3c0-0.1,0.1-0.3,0.1-0.4c0.2-0.3,0.4-0.5,0.7-0.6c6.1-1.7,11.9-4.2,17.6-7.2
		c4.1-2.2,8.1-4.7,11.9-7.5c2.4-1.8,4.7-3.8,6.8-5.9c0.3-0.3,0.5-0.5,0.8-0.8c0.6-0.6,1.5-0.5,1.9,0.2c0.8,1.1,1.6,2,2.4,3
		c0.4,0.5,0.9,1,1.4,1.5c0.5,0.5,0.4,1.4-0.2,1.8c-1,0.8-2,1.6-3,2.4c-0.4,0.4-1,0.3-1.4,0c-0.2-0.2-0.4-0.3-0.6-0.5
		c-0.1-0.1-0.2-0.1-0.4,0c-2.8,2.4-5.8,4.5-8.9,6.5c-4.4,2.9-9,5.4-13.9,7.3c-2.6,1-5.2,1.8-8,2.2c-1.9,0.3-3.7,0.3-5.5-0.3
		c-0.2-0.1-0.5-0.2-0.7-0.3c-0.5-0.3-1-0.5-1.1-1.2C43.7,120.4,43.7,120.3,43.7,120.3z"/>
	<path fill="#FFFFFF" d="M103.9,95.5c-0.8,1-1.5,2.1-2.3,3.1c-2.5,3.4-5.3,6.7-8.2,9.8c-2.8,2.9-5.7,5.7-8.9,8.1
		c-2.3,1.8-4.8,3.4-7.4,4.7c-1.7,0.8-3.5,1.4-5.4,1.7c-1.3,0.2-2.6,0-3.8-0.5c-0.4-0.2-0.7-0.4-0.8-0.8c-0.2-0.6,0.1-1.2,0.7-1.5
		c2-0.9,3.8-1.9,5.6-3.1c3.1-2,5.9-4.2,8.7-6.5c2.4-2,4.6-4.1,6.8-6.3c3.7-3.7,7-7.6,10-11.8c1-1.4,2-2.9,2.9-4.4
		c0.2-0.3,0.4-0.6,0.7-0.8c0.5-0.2,0.9-0.1,1.3,0.3c1.1,1,2.3,2.1,3.4,3.1c0.2,0.2,0.5,0.5,0.8,0.7c0.5,0.5,0.6,1.1,0.2,1.7
		c-0.7,1-1.3,1.9-2,2.8c-0.4,0.5-1.1,0.6-1.6,0.2C104.4,95.9,104.1,95.7,103.9,95.5z"/>
</g>
</svg>
